<svg xmlns="http://www.w3.org/2000/svg" version="1.1" xmlns:xlink="http://www.w3.org/1999/xlink" xmlns:svgjs="http://svgjs.dev/svgjs" width="1000" height="623" viewBox="0 0 1000 623"><g transform="matrix(1,0,0,1,-0.6060606060606233,0.2522267206477409)"><svg viewBox="0 0 396 247" data-background-color="#ffffff" preserveAspectRatio="xMidYMid meet" height="623" width="1000" xmlns="http://www.w3.org/2000/svg" xmlns:xlink="http://www.w3.org/1999/xlink"><g id="tight-bounds" transform="matrix(1,0,0,1,0.2400000000000091,-0.09999999999999432)"><svg viewBox="0 0 395.52 247.2" height="247.2" width="395.52"><g><svg></svg></g><g><svg viewBox="0 0 395.52 247.2" height="247.2" width="395.52"><mask id="3372ce23-ebdb-4b9d-8a0a-c2c8a830cca2"><rect width="640" height="400" fill="white"></rect><g transform="matrix(1,0,0,1,39.55199999999999,54.262922448979594)"><svg viewBox="0 0 316.416 138.6741551020408" height="138.6741551020408" width="316.416"><g><svg viewBox="0 0 316.416 138.6741551020408" height="138.6741551020408" width="316.416"><g><svg viewBox="0 0 316.416 138.6741551020408" height="138.6741551020408" width="316.416"><g><svg viewBox="0 0 316.416 138.6741551020408" height="138.6741551020408" width="316.416"><g id="SvgjsG1143"><svg viewBox="0 0 316.416 138.6741551020408" height="138.6741551020408" width="316.416" id="SvgjsSvg1142"><g><svg viewBox="0 0 316.416 138.6741551020408" height="138.6741551020408" width="316.416"><g transform="matrix(1,0,0,1,0,0)"><svg width="316.416" viewBox="-2 -39.5 99 43.95000076293945" height="138.6741551020408" data-palette-color="#0063db"><path d="M9.7 0L9.7 0Q8.45 0 6.08 0 3.7 0 2.85-0.35 2-0.7 2-1.45L2-1.45 2-33Q2-34.15 5.08-34.83 8.15-35.5 11.65-35.5 15.15-35.5 16.65-34.6 18.15-33.7 18.4-32.7L18.4-32.7 21.8-19.5 22.25-19.5 25.45-32.1Q25.8-33.45 28.73-34.48 31.65-35.5 35.15-35.5 38.65-35.5 40.33-34.95 42-34.4 42-33.55L42-33.55 42-1.45Q42-0.8 39.15-0.4 36.3 0 32.2 0 28.1 0 28.1-1.45L28.1-1.45Q28.1-5.4 28.95-15.5L28.95-15.5 28.5-15.5 25.9-2.45Q25.75-1.7 24.68-1.35 23.6-1 21.45-1 19.3-1 18.82-1.3 18.35-1.6 18.2-2.45L18.2-2.45 15.5-15.5 15.05-15.5Q15.95-5.2 15.95-1.45L15.95-1.45Q15.95-0.15 9.7 0ZM56.65-4.7Q56.65-1.75 55.3-0.65 53.95 0.45 51.32 0.45 48.7 0.45 47.35-0.65 46-1.75 46-4.7 46-7.65 47.37-8.63 48.75-9.6 51.35-9.6 53.95-9.6 55.3-8.63 56.65-7.65 56.65-4.7ZM74.59-1.45Q74.59-0.8 71.57-0.4 68.55 0 65.47 0 62.4 0 61.52-0.35 60.65-0.7 60.65-1.45L60.65-1.45 60.65-32.2Q60.65-33.45 63.55-34.48 66.45-35.5 69.84-35.5L69.84-35.5Q74.59-35.5 74.59-33.25L74.59-33.25 74.59-22.25 79.05-22.25 79.05-32.2Q79.05-33.45 81.97-34.48 84.9-35.5 88.3-35.5L88.3-35.5Q93-35.5 93-33.25L93-33.25 93-1.45Q93-0.8 89.95-0.4 86.9 0 83.84 0 80.8 0 79.92-0.35 79.05-0.7 79.05-1.45L79.05-1.45 79.05-12.9 74.59-12.9 74.59-1.45Z" opacity="1" transform="matrix(1,0,0,1,0,0)" fill="black" class="wordmark-text-0" id="SvgjsPath1141" stroke-width="7" stroke="black" stroke-linejoin="round"></path></svg></g></svg></g></svg></g></svg></g><g></g></svg></g></svg></g></svg></g></mask><g transform="matrix(1,0,0,1,39.55199999999999,54.262922448979594)"><svg viewBox="0 0 316.416 138.6741551020408" height="138.6741551020408" width="316.416"><g><svg viewBox="0 0 316.416 138.6741551020408" height="138.6741551020408" width="316.416"><g><svg viewBox="0 0 316.416 138.6741551020408" height="138.6741551020408" width="316.416"><g><svg viewBox="0 0 316.416 138.6741551020408" height="138.6741551020408" width="316.416"><g id="textblocktransform"><svg viewBox="0 0 316.416 138.6741551020408" height="138.6741551020408" width="316.416" id="textblock"><g><svg viewBox="0 0 316.416 138.6741551020408" height="138.6741551020408" width="316.416"><g transform="matrix(1,0,0,1,0,0)"><svg width="316.416" viewBox="-2 -39.5 99 43.95000076293945" height="138.6741551020408" data-palette-color="#0063db"><path d="M9.7 0L9.7 0Q8.45 0 6.08 0 3.7 0 2.85-0.35 2-0.7 2-1.45L2-1.45 2-33Q2-34.15 5.08-34.83 8.15-35.5 11.65-35.5 15.15-35.5 16.65-34.6 18.15-33.7 18.4-32.7L18.4-32.7 21.8-19.5 22.25-19.5 25.45-32.1Q25.8-33.45 28.73-34.48 31.65-35.5 35.15-35.5 38.65-35.5 40.33-34.95 42-34.4 42-33.55L42-33.55 42-1.45Q42-0.8 39.15-0.4 36.3 0 32.2 0 28.1 0 28.1-1.45L28.1-1.45Q28.1-5.4 28.95-15.5L28.95-15.5 28.5-15.5 25.9-2.45Q25.75-1.7 24.68-1.35 23.6-1 21.45-1 19.3-1 18.82-1.3 18.35-1.6 18.2-2.45L18.2-2.45 15.5-15.5 15.05-15.5Q15.95-5.2 15.95-1.45L15.95-1.45Q15.95-0.15 9.7 0ZM56.65-4.7Q56.65-1.75 55.3-0.65 53.95 0.45 51.32 0.45 48.7 0.45 47.35-0.65 46-1.75 46-4.7 46-7.65 47.37-8.63 48.75-9.6 51.35-9.6 53.95-9.6 55.3-8.63 56.65-7.65 56.65-4.7ZM74.59-1.45Q74.59-0.8 71.57-0.4 68.55 0 65.47 0 62.4 0 61.52-0.35 60.65-0.7 60.65-1.45L60.65-1.45 60.65-32.2Q60.65-33.45 63.55-34.48 66.45-35.5 69.84-35.5L69.84-35.5Q74.59-35.5 74.59-33.25L74.59-33.25 74.59-22.25 79.05-22.25 79.05-32.2Q79.05-33.45 81.97-34.48 84.9-35.5 88.3-35.5L88.3-35.5Q93-35.5 93-33.25L93-33.25 93-1.45Q93-0.8 89.95-0.4 86.9 0 83.84 0 80.8 0 79.92-0.35 79.05-0.7 79.05-1.45L79.05-1.45 79.05-12.9 74.59-12.9 74.59-1.45Z" opacity="1" transform="matrix(1,0,0,1,0,0)" fill="#0063db" class="wordmark-text-0" data-fill-palette-color="primary" id="text-0"></path></svg></g></svg></g></svg></g></svg></g><g></g></svg></g></svg></g></svg></g><g mask="url(#3372ce23-ebdb-4b9d-8a0a-c2c8a830cca2)"><g transform="matrix(10.635675675675675, 0, 0, 10.635675675675675, 1, 86.37513513513514)"><svg xmlns="http://www.w3.org/2000/svg" data-name="Your Icon" viewBox="31.5 39 37 7" x="0" y="0" height="7" width="37" class="icon-none" data-fill-palette-color="accent" id="none"><circle cx="35" cy="42.5" r="3.5" fill="#d90000" data-fill-palette-color="accent"></circle><circle cx="45" cy="42.5" r="3.5" fill="#d90000" data-fill-palette-color="accent"></circle><circle cx="55" cy="42.5" r="3.5" fill="#d90000" data-fill-palette-color="accent"></circle><circle cx="65" cy="42.5" r="3.5" fill="#d90000" data-fill-palette-color="accent"></circle></svg></g></g></svg></g><defs></defs></svg><rect width="395.52" height="247.2" fill="none" stroke="none" visibility="hidden"></rect></g></svg></g></svg>